<svg xmlns="http://www.w3.org/2000/svg" xmlns:xlink="http://www.w3.org/1999/xlink" version="1.1" id="Layer_1" viewBox="0 0 55 55" style="width: 200px; height: 200px; transform-origin: 50% 50%; transform: scaleX(1) scaleY(1) rotate(0deg);" xml:space="preserve" preserveAspectRatio="xMidYMid meet"><style type="text/css">
	.st0{fill:#FF7676;}
	.st1{fill:none;stroke:#231F20;stroke-width:1.5;stroke-linecap:round;stroke-linejoin:round;stroke-miterlimit:10;}
	.st2{fill:#AA734F;}
	.st3{fill:#FFD576;}
	.st4{fill:#00C994;}
	.st5{fill:#FFFFFF;stroke:#231F20;stroke-width:1.5;stroke-linecap:round;stroke-linejoin:round;stroke-miterlimit:10;}
	.st6{fill:#A973FF;}
	.st7{fill:#78BCFF;}
	.st8{fill:#D7DCE2;}
	.st9{fill:#D7DCE2;stroke:#231F20;stroke-width:1.5;stroke-linecap:round;stroke-linejoin:round;stroke-miterlimit:10;}
	.st10{fill:#FF7676;stroke:#231F20;stroke-width:1.5;stroke-linecap:round;stroke-linejoin:round;stroke-miterlimit:10;}
	.st11{fill:#FFD576;stroke:#231F20;stroke-width:1.5;stroke-linecap:round;stroke-linejoin:round;stroke-miterlimit:10;}
</style><g class=""><path class="st6" d="M51.5,7.8168511v7.9821467c0,1.8630733-1.5111427,3.3637905-3.3637924,3.3637905   c-1.8630714,0-3.3637886-1.5007172-3.3637886-3.3637905c0,1.8630733-1.5111427,3.3637905-3.3637924,3.3637905   c-1.8630753,0-3.3637924-1.5007172-3.3637924-3.3637905c0,1.8630733-1.5111389,3.3637905-3.3637886,3.3637905   c-1.8630753,0-3.3637924-1.5007172-3.3637924-3.3637905c0,1.8630733-1.5111427,3.3637905-3.3637924,3.3637905   c-1.8630733,0-3.3637905-1.5007172-3.3637905-3.3637905c0,1.8630733-1.5111408,3.3637905-3.3637905,3.3637905   c-1.8630753,0-3.3637924-1.5007172-3.3637924-3.3637905c0,1.8630733-1.5111408,3.3637905-3.3637915,3.3637905   c-1.8630733,0-3.3637905-1.5007172-3.3637905-3.3637905c0,1.8630733-1.5111418,3.3637905-3.3637915,3.3637905   c-1.8630733,0-3.3637915-1.5007172-3.3637915-3.3637905H4.405066V7.8168511" style="fill:#D0AD51"/><polyline class="st1" points="48.4611359,19.1627884 48.4611359,51.4990082 7.4439292,51.4990082 7.4439292,19.1627884  "/><path class="st1" d="M51.5,5.4990096v2.3178415H4.405066V5.4990096c0-1.1045694,0.8954306-1.9999998,2-1.9999998H49.5   C50.6045685,3.4990098,51.5,4.3944402,51.5,5.4990096z"/><path class="st1" d="M51.5,7.8168511v7.9821467c0,1.8630733-1.5111427,3.3637905-3.3637924,3.3637905   c-1.8630714,0-3.3637886-1.5007172-3.3637886-3.3637905c0,1.8630733-1.5111427,3.3637905-3.3637924,3.3637905   c-1.8630753,0-3.3637924-1.5007172-3.3637924-3.3637905c0,1.8630733-1.5111389,3.3637905-3.3637886,3.3637905   c-1.8630753,0-3.3637924-1.5007172-3.3637924-3.3637905c0,1.8630733-1.5111427,3.3637905-3.3637924,3.3637905   c-1.8630733,0-3.3637905-1.5007172-3.3637905-3.3637905c0,1.8630733-1.5111408,3.3637905-3.3637905,3.3637905   c-1.8630753,0-3.3637924-1.5007172-3.3637924-3.3637905c0,1.8630733-1.5111408,3.3637905-3.3637915,3.3637905   c-1.8630733,0-3.3637905-1.5007172-3.3637905-3.3637905c0,1.8630733-1.5111418,3.3637905-3.3637915,3.3637905   c-1.8630733,0-3.3637915-1.5007172-3.3637915-3.3637905H4.405066V7.8168511"/><line class="st1" x1="11.1345053" y1="15.7989979" x2="11.1345053" y2="7.8168511"/><line class="st1" x1="17.8620872" y1="15.7989979" x2="17.8620872" y2="7.8168511"/><line class="st1" x1="24.5896702" y1="15.7989979" x2="24.5896702" y2="7.8168511"/><line class="st1" x1="31.3172531" y1="15.7989979" x2="31.3172531" y2="7.8168511"/><line class="st1" x1="38.0448341" y1="15.7989979" x2="38.0448341" y2="7.8168511"/><line class="st1" x1="44.772419" y1="15.7989979" x2="44.772419" y2="7.8168511"/><path class="st1" d="M23.0668964,32.2090302v19.289978H11.4968882v-19.289978c0-1.1099834,0.9000244-1.9999981,2-1.9999981   h7.5700083C22.1768818,30.2090321,23.0668964,31.0990467,23.0668964,32.2090302z"/><line class="st1" x1="11.4985695" y1="40.8537216" x2="14.6270866" y2="40.8537216"/><line class="st1" x1="3.5" y1="51.5009918" x2="51.5" y2="51.5009918"/></g></svg>